<mxfile host="app.diagrams.net" agent="Mozilla/5.0 (Windows NT 10.0; Win64; x64) AppleWebKit/537.36 (KHTML, like Gecko) Chrome/131.0.0.0 Safari/537.36" version="25.0.3">
  <diagram id="-As-S2yMazwjb_GyY4yh" name="PÃ¡gina-1">
    <mxGraphModel dx="1947" dy="426" grid="1" gridSize="10" guides="1" tooltips="1" connect="1" arrows="1" fold="1" page="1" pageScale="1" pageWidth="827" pageHeight="1169" math="0" shadow="0">
      <root>
        <mxCell id="0" />
        <mxCell id="1" parent="0" />
        <mxCell id="QjBK7P9bKglySRuEEVH8-1" value="Interfaz de usuario" style="rounded=0;whiteSpace=wrap;html=1;" vertex="1" parent="1">
          <mxGeometry x="320" y="110" width="110" height="40" as="geometry" />
        </mxCell>
        <mxCell id="QjBK7P9bKglySRuEEVH8-2" value="Gestor de Instalacion" style="rounded=0;whiteSpace=wrap;html=1;" vertex="1" parent="1">
          <mxGeometry x="340" y="200" width="120" height="60" as="geometry" />
        </mxCell>
        <mxCell id="QjBK7P9bKglySRuEEVH8-3" value="Sistema de ubicacion" style="rounded=0;whiteSpace=wrap;html=1;" vertex="1" parent="1">
          <mxGeometry x="150" y="300" width="120" height="60" as="geometry" />
        </mxCell>
        <mxCell id="QjBK7P9bKglySRuEEVH8-4" value="Sistema de Distribucion de Agua" style="rounded=0;whiteSpace=wrap;html=1;" vertex="1" parent="1">
          <mxGeometry x="150" y="585" width="120" height="60" as="geometry" />
        </mxCell>
        <mxCell id="QjBK7P9bKglySRuEEVH8-5" value="Base de Datos" style="rounded=0;whiteSpace=wrap;html=1;" vertex="1" parent="1">
          <mxGeometry x="140" y="440" width="120" height="60" as="geometry" />
        </mxCell>
        <mxCell id="QjBK7P9bKglySRuEEVH8-9" value="" style="endArrow=classic;startArrow=classic;html=1;rounded=0;" edge="1" parent="1">
          <mxGeometry width="50" height="50" relative="1" as="geometry">
            <mxPoint x="460" y="230" as="sourcePoint" />
            <mxPoint x="560" y="230" as="targetPoint" />
          </mxGeometry>
        </mxCell>
        <mxCell id="QjBK7P9bKglySRuEEVH8-10" value="&amp;nbsp; &amp;nbsp; &amp;nbsp; &amp;nbsp; &amp;nbsp; &amp;nbsp; &amp;nbsp; &amp;nbsp; &amp;nbsp; &amp;nbsp; &amp;nbsp; (bd de los supervisores)" style="text;html=1;align=center;verticalAlign=middle;resizable=0;points=[];autosize=1;strokeColor=none;fillColor=none;" vertex="1" parent="1">
          <mxGeometry x="480" y="215" width="220" height="30" as="geometry" />
        </mxCell>
        <mxCell id="QjBK7P9bKglySRuEEVH8-12" value="" style="endArrow=classic;html=1;rounded=0;entryX=0.358;entryY=0.033;entryDx=0;entryDy=0;entryPerimeter=0;" edge="1" parent="1" target="QjBK7P9bKglySRuEEVH8-2">
          <mxGeometry width="50" height="50" relative="1" as="geometry">
            <mxPoint x="380" y="150" as="sourcePoint" />
            <mxPoint x="400" y="130" as="targetPoint" />
            <Array as="points">
              <mxPoint x="380" y="160" />
            </Array>
          </mxGeometry>
        </mxCell>
        <mxCell id="QjBK7P9bKglySRuEEVH8-13" value="" style="endArrow=classic;html=1;rounded=0;" edge="1" parent="1">
          <mxGeometry width="50" height="50" relative="1" as="geometry">
            <mxPoint x="380" y="180" as="sourcePoint" />
            <mxPoint x="440" y="180" as="targetPoint" />
          </mxGeometry>
        </mxCell>
        <mxCell id="QjBK7P9bKglySRuEEVH8-14" value="(envia solicitudes de uso)" style="text;html=1;align=center;verticalAlign=middle;resizable=0;points=[];autosize=1;strokeColor=none;fillColor=none;" vertex="1" parent="1">
          <mxGeometry x="435" y="160" width="160" height="30" as="geometry" />
        </mxCell>
        <mxCell id="QjBK7P9bKglySRuEEVH8-16" value="" style="endArrow=none;html=1;rounded=0;entryX=0.442;entryY=1.033;entryDx=0;entryDy=0;entryPerimeter=0;" edge="1" parent="1" target="QjBK7P9bKglySRuEEVH8-2">
          <mxGeometry width="50" height="50" relative="1" as="geometry">
            <mxPoint x="393" y="350" as="sourcePoint" />
            <mxPoint x="440" y="300" as="targetPoint" />
          </mxGeometry>
        </mxCell>
        <mxCell id="QjBK7P9bKglySRuEEVH8-17" value="" style="endArrow=classic;html=1;rounded=0;entryX=1;entryY=0.75;entryDx=0;entryDy=0;" edge="1" parent="1" target="QjBK7P9bKglySRuEEVH8-3">
          <mxGeometry width="50" height="50" relative="1" as="geometry">
            <mxPoint x="390" y="345" as="sourcePoint" />
            <mxPoint x="440" y="300" as="targetPoint" />
          </mxGeometry>
        </mxCell>
        <mxCell id="QjBK7P9bKglySRuEEVH8-18" value="" style="endArrow=classic;html=1;rounded=0;entryX=0.986;entryY=0.633;entryDx=0;entryDy=0;entryPerimeter=0;" edge="1" parent="1" target="QjBK7P9bKglySRuEEVH8-19">
          <mxGeometry width="50" height="50" relative="1" as="geometry">
            <mxPoint x="200" y="399" as="sourcePoint" />
            <mxPoint x="120" y="330" as="targetPoint" />
            <Array as="points" />
          </mxGeometry>
        </mxCell>
        <mxCell id="QjBK7P9bKglySRuEEVH8-19" value="Almacena ubicacion de bebederos" style="text;html=1;align=center;verticalAlign=middle;resizable=0;points=[];autosize=1;strokeColor=none;fillColor=none;" vertex="1" parent="1">
          <mxGeometry x="-40" y="380" width="210" height="30" as="geometry" />
        </mxCell>
        <mxCell id="QjBK7P9bKglySRuEEVH8-23" value="" style="endArrow=classic;html=1;rounded=0;exitX=0.408;exitY=1.05;exitDx=0;exitDy=0;exitPerimeter=0;" edge="1" parent="1" source="QjBK7P9bKglySRuEEVH8-3">
          <mxGeometry width="50" height="50" relative="1" as="geometry">
            <mxPoint x="195" y="420" as="sourcePoint" />
            <mxPoint x="200" y="440" as="targetPoint" />
          </mxGeometry>
        </mxCell>
        <mxCell id="QjBK7P9bKglySRuEEVH8-24" value="" style="endArrow=classic;html=1;rounded=0;" edge="1" parent="1">
          <mxGeometry width="50" height="50" relative="1" as="geometry">
            <mxPoint x="200" y="530" as="sourcePoint" />
            <mxPoint x="290" y="530" as="targetPoint" />
            <Array as="points">
              <mxPoint x="200" y="530" />
            </Array>
          </mxGeometry>
        </mxCell>
        <mxCell id="QjBK7P9bKglySRuEEVH8-25" value="Datos de calidad del agua y estado" style="text;html=1;align=center;verticalAlign=middle;resizable=0;points=[];autosize=1;strokeColor=none;fillColor=none;" vertex="1" parent="1">
          <mxGeometry x="290" y="520" width="210" height="30" as="geometry" />
        </mxCell>
        <mxCell id="QjBK7P9bKglySRuEEVH8-28" value="" style="endArrow=classic;html=1;rounded=0;" edge="1" parent="1">
          <mxGeometry width="50" height="50" relative="1" as="geometry">
            <mxPoint x="400" y="330" as="sourcePoint" />
            <mxPoint x="450" y="330" as="targetPoint" />
          </mxGeometry>
        </mxCell>
        <mxCell id="QjBK7P9bKglySRuEEVH8-29" value="configura bebederos" style="text;html=1;align=center;verticalAlign=middle;resizable=0;points=[];autosize=1;strokeColor=none;fillColor=none;" vertex="1" parent="1">
          <mxGeometry x="450" y="315" width="130" height="30" as="geometry" />
        </mxCell>
        <mxCell id="QjBK7P9bKglySRuEEVH8-31" value="" style="endArrow=classic;html=1;rounded=0;entryX=1;entryY=0;entryDx=0;entryDy=0;" edge="1" parent="1" target="QjBK7P9bKglySRuEEVH8-2">
          <mxGeometry width="50" height="50" relative="1" as="geometry">
            <mxPoint x="500" y="200" as="sourcePoint" />
            <mxPoint x="550" y="150" as="targetPoint" />
          </mxGeometry>
        </mxCell>
        <mxCell id="QjBK7P9bKglySRuEEVH8-32" value="" style="endArrow=none;html=1;rounded=0;" edge="1" parent="1">
          <mxGeometry width="50" height="50" relative="1" as="geometry">
            <mxPoint x="500" y="200" as="sourcePoint" />
            <mxPoint x="500" y="180" as="targetPoint" />
          </mxGeometry>
        </mxCell>
        <mxCell id="QjBK7P9bKglySRuEEVH8-33" value="" style="endArrow=classic;html=1;rounded=0;entryX=0.433;entryY=0.033;entryDx=0;entryDy=0;entryPerimeter=0;exitX=0.5;exitY=1;exitDx=0;exitDy=0;" edge="1" parent="1" source="QjBK7P9bKglySRuEEVH8-5" target="QjBK7P9bKglySRuEEVH8-4">
          <mxGeometry width="50" height="50" relative="1" as="geometry">
            <mxPoint x="300" y="550" as="sourcePoint" />
            <mxPoint x="350" y="500" as="targetPoint" />
          </mxGeometry>
        </mxCell>
        <mxCell id="QjBK7P9bKglySRuEEVH8-34" value="" style="endArrow=classic;html=1;rounded=0;exitX=0.433;exitY=0.983;exitDx=0;exitDy=0;exitPerimeter=0;entryX=0.5;entryY=0;entryDx=0;entryDy=0;" edge="1" parent="1" source="QjBK7P9bKglySRuEEVH8-4" target="QjBK7P9bKglySRuEEVH8-35">
          <mxGeometry width="50" height="50" relative="1" as="geometry">
            <mxPoint x="180" y="690" as="sourcePoint" />
            <mxPoint x="202" y="690" as="targetPoint" />
          </mxGeometry>
        </mxCell>
        <mxCell id="QjBK7P9bKglySRuEEVH8-35" value="Usuarios" style="rounded=0;whiteSpace=wrap;html=1;" vertex="1" parent="1">
          <mxGeometry x="140" y="710" width="120" height="60" as="geometry" />
        </mxCell>
        <mxCell id="QjBK7P9bKglySRuEEVH8-37" value="" style="endArrow=classic;html=1;rounded=0;" edge="1" parent="1">
          <mxGeometry width="50" height="50" relative="1" as="geometry">
            <mxPoint x="200" y="680" as="sourcePoint" />
            <mxPoint x="300" y="680" as="targetPoint" />
          </mxGeometry>
        </mxCell>
        <mxCell id="QjBK7P9bKglySRuEEVH8-38" value="proporciona agua a bebederos&lt;div&gt;&lt;br&gt;&lt;/div&gt;" style="text;html=1;align=center;verticalAlign=middle;resizable=0;points=[];autosize=1;strokeColor=none;fillColor=none;" vertex="1" parent="1">
          <mxGeometry x="290" y="670" width="190" height="40" as="geometry" />
        </mxCell>
        <mxCell id="QjBK7P9bKglySRuEEVH8-39" value="Se conecta con Gestor de InstalaciÃ³n para enviar solicitudes de uso de los bebederos." style="text;html=1;align=center;verticalAlign=middle;resizable=0;points=[];autosize=1;strokeColor=none;fillColor=none;" vertex="1" parent="1">
          <mxGeometry x="-190" y="115" width="480" height="30" as="geometry" />
        </mxCell>
        <mxCell id="QjBK7P9bKglySRuEEVH8-41" value="" style="edgeStyle=none;orthogonalLoop=1;jettySize=auto;html=1;rounded=0;entryX=0;entryY=0.5;entryDx=0;entryDy=0;exitX=0.992;exitY=0.6;exitDx=0;exitDy=0;exitPerimeter=0;" edge="1" parent="1" source="QjBK7P9bKglySRuEEVH8-39" target="QjBK7P9bKglySRuEEVH8-1">
          <mxGeometry width="80" relative="1" as="geometry">
            <mxPoint x="290" y="150" as="sourcePoint" />
            <mxPoint x="310" y="160" as="targetPoint" />
            <Array as="points" />
          </mxGeometry>
        </mxCell>
        <mxCell id="QjBK7P9bKglySRuEEVH8-42" value="&lt;div&gt;Se conecta con Base de Datos (BD) para registrar la configuraciÃ³n de los bebederos.&lt;/div&gt;&lt;div&gt;&lt;br&gt;&lt;/div&gt;&lt;div&gt;Se comunica con Sistema de UbicaciÃ³n de Bebederos para gestionar las ubicaciones.&lt;/div&gt;" style="text;html=1;align=center;verticalAlign=middle;resizable=0;points=[];autosize=1;strokeColor=none;fillColor=none;" vertex="1" parent="1">
          <mxGeometry x="-200" y="200" width="480" height="60" as="geometry" />
        </mxCell>
        <mxCell id="QjBK7P9bKglySRuEEVH8-43" value="" style="endArrow=classic;html=1;rounded=0;entryX=0;entryY=0.75;entryDx=0;entryDy=0;exitX=1.006;exitY=0.783;exitDx=0;exitDy=0;exitPerimeter=0;" edge="1" parent="1" source="QjBK7P9bKglySRuEEVH8-42" target="QjBK7P9bKglySRuEEVH8-2">
          <mxGeometry width="50" height="50" relative="1" as="geometry">
            <mxPoint x="280" y="250" as="sourcePoint" />
            <mxPoint x="330" y="200" as="targetPoint" />
          </mxGeometry>
        </mxCell>
        <mxCell id="QjBK7P9bKglySRuEEVH8-45" value="" style="edgeStyle=orthogonalEdgeStyle;rounded=0;orthogonalLoop=1;jettySize=auto;html=1;" edge="1" parent="1" source="QjBK7P9bKglySRuEEVH8-44" target="QjBK7P9bKglySRuEEVH8-3">
          <mxGeometry relative="1" as="geometry">
            <Array as="points">
              <mxPoint x="150" y="325" />
              <mxPoint x="150" y="325" />
            </Array>
          </mxGeometry>
        </mxCell>
        <mxCell id="QjBK7P9bKglySRuEEVH8-44" value="Registra las ubicaciones de los bebederos en la Base de Datos (BD)." style="text;html=1;align=center;verticalAlign=middle;resizable=0;points=[];autosize=1;strokeColor=none;fillColor=none;" vertex="1" parent="1">
          <mxGeometry x="-260" y="310" width="390" height="30" as="geometry" />
        </mxCell>
        <mxCell id="QjBK7P9bKglySRuEEVH8-50" value="" style="edgeStyle=orthogonalEdgeStyle;rounded=0;orthogonalLoop=1;jettySize=auto;html=1;" edge="1" parent="1" source="QjBK7P9bKglySRuEEVH8-47" target="QjBK7P9bKglySRuEEVH8-4">
          <mxGeometry relative="1" as="geometry" />
        </mxCell>
        <mxCell id="QjBK7P9bKglySRuEEVH8-47" value="&lt;div&gt;Recibe informaciÃ³n de la Base de Datos (BD) sobre el estado de los bebederos y controla el suministro de agua.&lt;/div&gt;&lt;div&gt;&lt;br&gt;&lt;/div&gt;" style="text;html=1;align=center;verticalAlign=middle;resizable=0;points=[];autosize=1;strokeColor=none;fillColor=none;" vertex="1" parent="1">
          <mxGeometry x="-500" y="595" width="620" height="40" as="geometry" />
        </mxCell>
        <mxCell id="QjBK7P9bKglySRuEEVH8-49" value="" style="edgeStyle=orthogonalEdgeStyle;rounded=0;orthogonalLoop=1;jettySize=auto;html=1;" edge="1" parent="1" source="QjBK7P9bKglySRuEEVH8-48" target="QjBK7P9bKglySRuEEVH8-5">
          <mxGeometry relative="1" as="geometry" />
        </mxCell>
        <mxCell id="QjBK7P9bKglySRuEEVH8-48" value="Almacena toda la informaciÃ³n: usuarios, supervisores, ubicaciones y estado de los bebederos." style="text;html=1;align=center;verticalAlign=middle;resizable=0;points=[];autosize=1;strokeColor=none;fillColor=none;" vertex="1" parent="1">
          <mxGeometry x="-440" y="448" width="530" height="30" as="geometry" />
        </mxCell>
      </root>
    </mxGraphModel>
  </diagram>
</mxfile>
